<?xml version="1.0" encoding="UTF-8"?>
<svg id="_Слой_1" data-name="Слой 1" xmlns="http://www.w3.org/2000/svg" viewBox="0 0 1193.25 308.24">
  <defs>
    <style>
      .cls-1 {
        fill: #11aff4;
      }

      .cls-1, .cls-2, .cls-3 {
        stroke-width: 0px;
      }

      .cls-2 {
        fill: #121212;
      }

      .cls-3 {
        fill: #8acdf8;
      }
    </style>
  </defs>
  <g>
    <g>
      <polygon class="cls-1" points="245.21 139.89 245.21 0 0 0 0 139.89 122.6 18.57 245.21 139.89"/>
      <path class="cls-1" d="M211.44,174.02l-88.83-87.9-34.17,33.81,75.94,75.94h-67.8l-42.22-42.22-20.59,20.37L1.66,205.79c9.61,58.12,60.1,102.45,120.95,102.45h0c60.85,0,111.33-44.33,120.95-102.45l-32.11-31.78Z"/>
    </g>
    <polygon class="cls-3" points="122.6 18.57 122.6 86.12 243.55 205.79 245.21 139.89 122.6 18.57"/>
  </g>
  <g>
    <g>
      <path class="cls-1" d="M338.91,40.89h-16.73l-29.77,83.25h15.58l7.04-21.52h30.98l7.04,21.52h15.58l-29.71-83.25ZM318.78,91.14l11.59-35.42h.29l11.59,35.42h-23.47Z"/>
      <path class="cls-1" d="M407.68,89.35l-10.15-2.25c-2.12-.5-3.81-1.09-5.08-1.76s-2.19-1.47-2.77-2.39c-.58-.92-.87-1.96-.87-3.12v-.06c0-1.5.41-2.81,1.24-3.92.83-1.12,2.02-1.98,3.58-2.6,1.56-.62,3.4-.92,5.51-.92,3.35,0,5.98.8,7.9,2.39,1.92,1.6,3.04,3.63,3.35,6.09l.06.46h13.38l-.06-.64c-.15-3.54-1.22-6.73-3.2-9.58-1.98-2.85-4.78-5.11-8.39-6.81-3.61-1.69-7.96-2.54-13.04-2.54s-9.17.79-12.86,2.36c-3.69,1.58-6.56,3.77-8.6,6.58-2.04,2.81-3.06,6.08-3.06,9.81v.06c0,3.04.65,5.7,1.96,7.99,1.31,2.29,3.27,4.2,5.88,5.74,2.61,1.54,5.86,2.75,9.75,3.63l10.15,2.25c3.19.73,5.4,1.66,6.63,2.8,1.23,1.14,1.85,2.61,1.85,4.41v.06c0,1.5-.45,2.81-1.35,3.92-.91,1.12-2.18,1.96-3.84,2.54-1.65.58-3.65.86-6,.86-3.65,0-6.49-.73-8.51-2.19-2.02-1.46-3.3-3.52-3.84-6.17l-.12-.52h-14.13l.06.52c.46,3.77,1.76,7.09,3.9,9.95,2.13,2.87,5.09,5.09,8.88,6.66,3.79,1.58,8.36,2.37,13.7,2.37,5,0,9.43-.8,13.3-2.39,3.87-1.6,6.9-3.85,9.09-6.75,2.19-2.9,3.29-6.28,3.29-10.13v-.06c0-4.42-1.35-7.95-4.04-10.59-2.69-2.63-7.21-4.66-13.56-6.09Z"/>
      <path class="cls-1" d="M474.19,98.4c0,2.23-.31,4.26-.92,6.09s-1.52,3.39-2.71,4.7c-1.19,1.31-2.62,2.32-4.3,3.03-1.67.71-3.53,1.07-5.57,1.07-4.12,0-7.19-1.18-9.23-3.55-2.04-2.36-3.06-5.72-3.06-10.07v-36.69h-14.31v39.58c0,4.69.83,8.75,2.48,12.17,1.65,3.42,4.05,6.05,7.18,7.87,3.14,1.83,6.95,2.74,11.45,2.74,3.08,0,5.83-.44,8.25-1.33,2.42-.88,4.5-2.14,6.23-3.78,1.73-1.64,3.14-3.53,4.21-5.68h.29v9.58h14.37v-61.15h-14.37v35.42Z"/>
    </g>
    <polygon class="cls-2" points="298.18 265.91 352.06 265.91 352.06 253.4 313.06 253.4 313.06 229.63 349.93 229.63 349.93 217.63 313.06 217.63 313.06 195.19 352.06 195.19 352.06 182.67 298.18 182.67 298.18 265.91"/>
    <path class="cls-2" d="M405.65,215.26h-.35c-1.15-2.46-2.67-4.57-4.56-6.32-1.89-1.75-4.05-3.1-6.49-4.04-2.44-.94-5.13-1.41-8.05-1.41-5.11,0-9.56,1.28-13.33,3.84-3.77,2.56-6.69,6.21-8.77,10.96-2.08,4.75-3.12,10.41-3.12,16.99v.06c0,6.54,1.03,12.19,3.09,16.96,2.06,4.77,4.98,8.43,8.77,10.99,3.79,2.56,8.26,3.84,13.41,3.84,2.96,0,5.66-.47,8.11-1.41,2.44-.94,4.59-2.27,6.46-3.98,1.87-1.71,3.35-3.78,4.47-6.2h.35v10.38h14.31v-83.25h-14.31v32.6ZM405.65,235.34c0,4-.63,7.48-1.9,10.44-1.27,2.96-3.04,5.25-5.31,6.87-2.27,1.61-4.88,2.42-7.85,2.42s-5.74-.8-7.99-2.39c-2.25-1.59-3.98-3.87-5.19-6.84-1.21-2.96-1.82-6.46-1.82-10.5v-.06c0-4.08.61-7.58,1.82-10.5,1.21-2.92,2.94-5.18,5.19-6.78,2.25-1.59,4.91-2.39,7.99-2.39s5.57.81,7.82,2.42c2.25,1.62,4.02,3.89,5.31,6.84,1.29,2.94,1.93,6.41,1.93,10.41v.06Z"/>
    <path class="cls-2" d="M471.88,240.19c0,2.23-.31,4.26-.92,6.09-.62,1.83-1.52,3.39-2.71,4.7-1.19,1.31-2.62,2.32-4.3,3.03-1.67.71-3.53,1.07-5.57,1.07-4.12,0-7.19-1.18-9.23-3.55-2.04-2.36-3.06-5.72-3.06-10.07v-36.69h-14.31v39.58c0,4.69.83,8.75,2.48,12.17,1.65,3.42,4.05,6.05,7.18,7.87,3.14,1.83,6.95,2.74,11.45,2.74,3.08,0,5.83-.44,8.25-1.33,2.42-.88,4.5-2.14,6.23-3.78,1.73-1.64,3.14-3.53,4.21-5.68h.29v9.58h14.37v-61.15h-14.37v35.42Z"/>
    <path class="cls-2" d="M538.29,244.8c-.65,3.19-2.11,5.78-4.36,7.76-2.25,1.98-5.2,2.97-8.86,2.97-3,0-5.62-.8-7.87-2.4-2.25-1.59-4-3.89-5.25-6.89-1.25-3-1.88-6.61-1.88-10.85v-.06c0-4.19.62-7.79,1.85-10.79,1.23-3,2.97-5.32,5.22-6.95,2.25-1.63,4.87-2.45,7.87-2.45,3.81,0,6.82,1.05,9.03,3.14,2.21,2.1,3.61,4.62,4.18,7.59l.12.46h13.5v-.4c-.31-4.08-1.58-7.81-3.81-11.19-2.23-3.38-5.31-6.11-9.23-8.16-3.92-2.06-8.58-3.09-13.96-3.09-5.92,0-11.09,1.29-15.49,3.86-4.4,2.58-7.82,6.24-10.24,10.99-2.42,4.75-3.64,10.37-3.64,16.87v.06c0,6.54,1.2,12.19,3.61,16.96,2.4,4.77,5.82,8.44,10.24,11.02,4.42,2.58,9.65,3.87,15.69,3.87,5.15,0,9.67-.99,13.56-2.97,3.88-1.98,6.98-4.66,9.29-8.05,2.31-3.38,3.65-7.19,4.04-11.42l.06-.4h-13.56l-.12.52Z"/>
    <path class="cls-2" d="M599.81,206.03c-3.75-1.69-8.18-2.54-13.3-2.54s-9.61.83-13.36,2.48c-3.75,1.65-6.68,3.91-8.8,6.78-2.11,2.87-3.33,6.11-3.64,9.72l-.06.69h13.27l.12-.52c.5-2.27,1.77-4.12,3.81-5.57,2.04-1.44,4.75-2.16,8.13-2.16,3.65,0,6.45.89,8.39,2.68,1.94,1.79,2.91,4.22,2.91,7.3v4.21l-15.98.99c-4.92.31-9.11,1.22-12.58,2.74-3.46,1.52-6.11,3.58-7.93,6.17-1.83,2.6-2.74,5.72-2.74,9.38v.12c0,3.61.86,6.82,2.57,9.6,1.71,2.79,4.11,4.96,7.21,6.52,3.09,1.56,6.66,2.34,10.7,2.34,2.69,0,5.22-.42,7.59-1.27,2.37-.85,4.47-2.06,6.32-3.64,1.85-1.58,3.35-3.42,4.5-5.54h.35v9.4h14.31v-42.06c0-4.11-1.03-7.69-3.09-10.73-2.06-3.04-4.96-5.4-8.71-7.1ZM595.4,249.76c-1.27,1.92-2.99,3.44-5.16,4.56-2.17,1.12-4.64,1.67-7.41,1.67-3.15,0-5.68-.72-7.59-2.16-1.9-1.44-2.85-3.41-2.85-5.91v-.06c0-2.42.94-4.36,2.83-5.83,1.88-1.46,4.59-2.31,8.13-2.54l13.96-.87v4.62c0,2.42-.63,4.6-1.9,6.52Z"/>
    <path class="cls-2" d="M641.67,189.24h-14.6v15.52h-8.65v11.08h8.65v33.52c0,6.31,1.55,10.85,4.64,13.62,3.09,2.77,7.82,4.15,14.16,4.15,1.5,0,2.86-.06,4.07-.17,1.21-.12,2.24-.23,3.09-.35v-10.79c-.5.04-1.03.09-1.59.14-.56.06-1.2.09-1.93.09-2.58,0-4.53-.57-5.86-1.7-1.33-1.13-1.99-3.18-1.99-6.14v-32.36h11.36v-11.08h-11.36v-15.52Z"/>
    <rect class="cls-2" x="663.24" y="204.76" width="14.37" height="61.15"/>
    <path class="cls-2" d="M670.4,180.3c-2.23,0-4.12.76-5.65,2.28-1.54,1.52-2.31,3.38-2.31,5.57s.77,4,2.31,5.54c1.54,1.54,3.42,2.31,5.65,2.31s4.17-.77,5.71-2.31c1.54-1.54,2.31-3.38,2.31-5.54s-.77-4.05-2.31-5.57c-1.54-1.52-3.44-2.28-5.71-2.28Z"/>
    <path class="cls-2" d="M732.39,207.33c-4.44-2.56-9.64-3.84-15.61-3.84s-11.1,1.28-15.52,3.84c-4.42,2.56-7.87,6.21-10.33,10.96-2.46,4.75-3.69,10.39-3.69,16.93v.12c0,6.58,1.22,12.24,3.66,16.99,2.44,4.75,5.87,8.4,10.3,10.96,4.42,2.56,9.63,3.84,15.63,3.84s11.21-1.27,15.64-3.81c4.42-2.54,7.85-6.18,10.3-10.93,2.44-4.75,3.66-10.43,3.66-17.05v-.12c0-6.58-1.23-12.23-3.69-16.96-2.46-4.73-5.91-8.37-10.36-10.93ZM731.78,235.34c0,4.27-.61,7.91-1.82,10.93-1.21,3.02-2.93,5.32-5.16,6.89-2.23,1.58-4.87,2.37-7.9,2.37s-5.68-.79-7.93-2.37c-2.25-1.58-4-3.87-5.25-6.89-1.25-3.02-1.88-6.66-1.88-10.93v-.12c0-4.23.62-7.84,1.88-10.85,1.25-3,3-5.29,5.25-6.86,2.25-1.58,4.86-2.37,7.82-2.37s5.68.79,7.93,2.37c2.25,1.58,3.99,3.86,5.22,6.86,1.23,3,1.85,6.62,1.85,10.85v.12Z"/>
    <path class="cls-2" d="M788.95,203.49c-4.61,0-8.49.98-11.63,2.94-3.14,1.96-5.49,4.6-7.07,7.9h-.35v-9.58h-14.31v61.15h14.31v-35.48c0-2.96.56-5.55,1.67-7.76,1.12-2.21,2.69-3.94,4.73-5.19,2.04-1.25,4.42-1.88,7.15-1.88,4.08,0,7.13,1.18,9.17,3.55,2.04,2.37,3.06,5.72,3.06,10.07v36.69h14.36v-39.58c0-7.08-1.84-12.65-5.51-16.73-3.67-4.08-8.87-6.11-15.6-6.11Z"/>
    <path class="cls-2" d="M903.7,238.45c-.89,3.43-2.29,6.33-4.21,8.71-1.92,2.38-4.28,4.2-7.07,5.45-2.79,1.25-5.95,1.88-9.49,1.88-4.81,0-9.01-1.24-12.6-3.72-3.6-2.48-6.38-5.98-8.34-10.5-1.96-4.52-2.94-9.85-2.94-16.01v-.06c0-6.19.98-11.53,2.94-16.01,1.96-4.48,4.73-7.95,8.31-10.41,3.58-2.46,7.79-3.69,12.63-3.69,3.61,0,6.83.63,9.63,1.9,2.81,1.27,5.13,3.06,6.98,5.37,1.85,2.31,3.17,5.06,3.98,8.25l.29,1.1h14.6l-.06-.58c-.73-5.65-2.69-10.65-5.88-15-3.19-4.35-7.32-7.75-12.37-10.21-5.06-2.46-10.78-3.69-17.16-3.69-7.96,0-14.86,1.74-20.71,5.22-5.85,3.48-10.37,8.43-13.56,14.86-3.19,6.42-4.79,14.06-4.79,22.9v.06c0,8.85,1.59,16.49,4.76,22.93,3.17,6.44,7.69,11.41,13.56,14.91,5.86,3.5,12.78,5.25,20.74,5.25,6.38,0,12.12-1.22,17.19-3.66,5.08-2.44,9.21-5.84,12.4-10.18,3.19-4.35,5.14-9.34,5.83-15l.12-.64h-14.6l-.17.58Z"/>
    <path class="cls-2" d="M969.55,207.33c-4.25-2.56-9.28-3.84-15.09-3.84s-10.91,1.33-15.2,3.98c-4.29,2.65-7.61,6.37-9.98,11.16-2.36,4.79-3.55,10.39-3.55,16.82v.06c0,6.46,1.17,12.06,3.52,16.79,2.35,4.73,5.72,8.39,10.13,10.96,4.4,2.58,9.66,3.87,15.78,3.87,3.96,0,7.5-.53,10.62-1.59,3.11-1.06,5.81-2.49,8.08-4.3,2.27-1.81,4.08-3.84,5.42-6.09,1.35-2.25,2.27-4.55,2.77-6.9l.12-.63h-13.38l-.12.4c-.46,1.38-1.28,2.67-2.45,3.87-1.17,1.19-2.67,2.16-4.47,2.91-1.81.75-3.9,1.12-6.29,1.12-3.19,0-5.94-.7-8.25-2.11-2.31-1.4-4.09-3.42-5.34-6.06-1.18-2.48-1.78-5.46-1.85-8.91h42.78v-4.62c0-6.15-1.14-11.54-3.43-16.15-2.29-4.61-5.56-8.2-9.81-10.76ZM947.06,216.79c2.21-1.37,4.74-2.05,7.59-2.05s5.29.66,7.44,1.99c2.15,1.33,3.85,3.32,5.08,5.97.86,1.86,1.4,4.06,1.66,6.58h-28.63c.27-2.4.81-4.55,1.67-6.4,1.25-2.69,2.98-4.72,5.19-6.08Z"/>
    <path class="cls-2" d="M1025.31,203.49c-4.61,0-8.49.98-11.63,2.94-3.14,1.96-5.49,4.6-7.07,7.9h-.35v-9.58h-14.31v61.15h14.31v-35.48c0-2.96.56-5.55,1.67-7.76,1.12-2.21,2.69-3.94,4.73-5.19,2.04-1.25,4.42-1.88,7.15-1.88,4.08,0,7.13,1.18,9.17,3.55,2.04,2.37,3.06,5.72,3.06,10.07v36.69h14.36v-39.58c0-7.08-1.84-12.65-5.51-16.73-3.67-4.08-8.87-6.11-15.6-6.11Z"/>
    <path class="cls-2" d="M1076.37,189.24h-14.6v15.52h-8.65v11.08h8.65v33.52c0,6.31,1.55,10.85,4.64,13.62,3.09,2.77,7.82,4.15,14.16,4.15,1.5,0,2.86-.06,4.07-.17,1.21-.12,2.24-.23,3.09-.35v-10.79c-.5.04-1.03.09-1.59.14-.56.06-1.2.09-1.93.09-2.58,0-4.53-.57-5.86-1.7-1.33-1.13-1.99-3.18-1.99-6.14v-32.36h11.36v-11.08h-11.36v-15.52Z"/>
    <path class="cls-2" d="M1137.61,207.33c-4.25-2.56-9.28-3.84-15.09-3.84s-10.91,1.33-15.2,3.98c-4.29,2.65-7.61,6.37-9.98,11.16-2.36,4.79-3.55,10.39-3.55,16.82v.06c0,6.46,1.17,12.06,3.52,16.79,2.35,4.73,5.72,8.39,10.13,10.96,4.4,2.58,9.66,3.87,15.78,3.87,3.96,0,7.5-.53,10.62-1.59,3.11-1.06,5.81-2.49,8.08-4.3,2.27-1.81,4.08-3.84,5.42-6.09,1.35-2.25,2.27-4.55,2.77-6.9l.12-.63h-13.38l-.12.4c-.46,1.38-1.28,2.67-2.45,3.87-1.17,1.19-2.67,2.16-4.47,2.91-1.81.75-3.9,1.12-6.29,1.12-3.19,0-5.94-.7-8.25-2.11-2.31-1.4-4.09-3.42-5.34-6.06-1.18-2.48-1.78-5.46-1.85-8.91h42.78v-4.62c0-6.15-1.14-11.54-3.43-16.15-2.29-4.61-5.56-8.2-9.81-10.76ZM1115.11,216.79c2.21-1.37,4.74-2.05,7.59-2.05s5.29.66,7.44,1.99c2.15,1.33,3.85,3.32,5.08,5.97.86,1.86,1.4,4.06,1.66,6.58h-28.63c.27-2.4.81-4.55,1.67-6.4,1.25-2.69,2.98-4.72,5.19-6.08Z"/>
    <path class="cls-2" d="M1191.23,203.67c-.81-.12-1.65-.17-2.54-.17-3.54,0-6.53,1.05-8.97,3.14-2.44,2.1-4.13,4.99-5.05,8.68h-.35v-10.56h-14.31v61.15h14.31v-35.48c0-3.04.52-5.61,1.56-7.73,1.04-2.12,2.54-3.72,4.5-4.82,1.96-1.09,4.29-1.64,6.98-1.64,1.23,0,2.37.08,3.43.23,1.06.15,1.87.35,2.45.58v-12.98c-.54-.15-1.21-.29-2.02-.4Z"/>
  </g>
</svg>